Coordinates
version=1
nRows=12
nColumns=34
inDegrees=yes

Units are S.I. units (second, meters, Newtons, ...)
If the header above contains a line with 'inDegrees', this indicates whether rotational values are in degrees (yes) or radians (no).

endheader
time	pelvis_tilt	pelvis_list	pelvis_rotation	pelvis_tx	pelvis_ty	pelvis_tz	hip_flexion_r	hip_adduction_r	hip_rotation_r	knee_angle_r	ankle_angle_r	subtalar_angle_r	mtp_angle_r	hip_flexion_l	hip_adduction_l	hip_rotation_l	knee_angle_l	ankle_angle_l	subtalar_angle_l	mtp_angle_l	lumbar_extension	lumbar_bending	lumbar_rotation	arm_flex_r	arm_add_r	arm_rot_r	elbow_flex_r	pro_sup_r	arm_flex_l	arm_add_l	arm_rot_l	elbow_flex_l	pro_sup_l
      2.08333330	     -7.05554263	      2.17301256	     -2.54655327	      1.80120727	      0.87996283	     -0.19664270	      5.62428986	     -7.42432996	     -0.04935157	      0.00000000	      0.49960775	    -18.04669655	      0.00000000	      4.87353485	     -0.22396500	     -4.81662804	      0.00000000	      2.19217878	     -5.07648279	      0.00000000	     -8.87192609	     -0.89361037	     -1.34417222	      8.37299341	    -11.85436465	     35.93884372	    108.67841485	     86.60578029	      8.96970519	     -4.47004295	     24.60563321	     95.36657310	     76.39413166
      2.10000000	     -7.10812635	      2.16082876	     -2.42691284	      1.80165386	      0.88027581	     -0.19695738	      5.62797023	     -7.43044670	     -0.05882780	      0.00000000	      0.49914219	    -18.04005937	      0.00000000	      4.95510785	     -0.23159730	     -4.85091059	      0.00000000	      2.21474285	     -5.09624598	      0.00000000	     -8.99995668	     -0.88188256	     -1.25043406	      8.37730992	    -11.75294181	     36.00283943	    108.61484668	     86.60945735	      8.89571865	     -4.52726282	     24.63937610	     95.32281127	     76.40266569
      2.11666670	     -7.11912390	      2.14977193	     -2.49277636	      1.80183382	      0.88133825	     -0.19686474	      5.65248728	     -7.41731170	     -0.19558396	      0.00000000	      0.57543793	    -17.80597058	      0.00000000	      4.95521449	     -0.25939186	     -4.95542442	      0.00000000	      2.29579911	     -5.04579434	      0.00000000	     -8.99947707	     -0.77706956	     -1.31629041	      9.00367978	    -11.14139490	     36.93069053	    106.44110778	     86.70107394	      8.99414855	     -4.82005063	     25.51613647	     94.27499946	     76.64983803
      2.13333330	     -7.15886509	      2.11248303	     -2.48373223	      1.80209306	      0.88158163	     -0.19695220	      5.68084700	     -7.39891656	     -0.25509303	      0.00000000	      0.67346272	    -17.65313203	      0.00000000	      4.99549570	     -0.28717766	     -4.98690993	      0.00000000	      2.37845638	     -5.00769233	      0.00000000	     -9.08186210	     -0.67277605	     -1.33370175	      9.54922748	    -10.80281612	     37.65861645	    104.97521701	     86.76844439	      8.87797240	     -4.54297618	     25.99964270	     93.17822076	     76.86172412
      2.15000000	     -7.14923377	      2.06507359	     -2.49208153	      1.80274964	      0.88117884	     -0.19712162	      5.64404671	     -7.37101026	     -0.23143872	      0.00000000	      0.72099984	    -17.53190179	      0.00000000	      4.96631856	     -0.32091195	     -5.03765948	      0.00000000	      2.47104225	     -5.05330407	      0.00000000	     -9.25519184	     -0.55619135	     -1.28929361	     10.07279270	    -10.38169513	     38.27515177	    103.32155960	     86.80674388	      8.80948767	     -4.20710507	     26.76433665	     92.28789432	     77.07393505
      2.16666670	     -7.14862565	      2.07272332	     -2.48793919	      1.80367474	      0.88018823	     -0.19746512	      5.59660947	     -7.40116434	     -0.18993753	      0.00000000	      0.77108777	    -17.44323116	      0.00000000	      4.93031885	     -0.28970252	     -5.08684355	      0.00000000	      2.52955599	     -5.11668154	      0.00000000	     -9.38191786	     -0.48225582	     -1.31620391	     10.59340329	     -9.95738244	     38.86318810	    101.75516187	     86.83049491	      8.77996817	     -3.99616486	     27.56360686	     91.31036275	     77.28366131
      2.18333330	     -7.24598541	      2.09075731	     -2.38575752	      1.80429004	      0.87901724	     -0.19804497	      5.61546195	     -7.44473216	     -0.19754051	      0.00000000	      0.79571194	    -17.45448185	      0.00000000	      5.01948613	     -0.24202164	     -5.08194909	      0.00000000	      2.55275373	     -5.12638870	      0.00000000	     -9.59893790	     -0.43045449	     -1.16500758	     10.66201814	     -9.86730667	     38.90549846	    101.62119566	     86.83027786	      8.61432160	     -3.97716358	     27.65772620	     91.21961779	     77.29714146
      2.20000000	     -7.33562204	      2.13565435	     -2.43216659	      1.80462717	      0.87847957	     -0.19890026	      5.68288271	     -7.53498973	     -0.22477797	      0.00000000	      0.87427821	    -17.49873804	      0.00000000	      5.07898599	     -0.14395996	     -5.07768462	      0.00000000	      2.61991667	     -5.17270126	      0.00000000	     -9.91681966	     -0.26759625	     -0.97750959	     10.72500705	     -9.74768595	     38.98379815	    101.24039487	     86.83032492	      8.40646188	     -3.96798073	     27.84165911	     91.03425753	     77.32469981
      2.21666670	     -7.17609074	      2.16663064	     -2.51638480	      1.80541133	      0.87881279	     -0.19934636	      5.43974571	     -7.59100958	     -0.08685466	      0.00000000	      1.11245183	    -17.48783146	      0.00000000	      4.82283916	     -0.08372196	     -5.18314030	      0.00000000	      2.64562142	     -5.44729221	      0.00000000	     -9.51777389	     -0.27000213	     -1.04946794	     11.62526605	     -9.14095083	     39.63338302	     97.62560867	     86.85186073	      8.93389717	     -4.39624834	     29.00423889	     89.46464255	     77.76279058
      2.23333330	     -7.26503188	      2.18584390	     -2.46248942	      1.80638473	      0.87893439	     -0.19970889	      5.45025938	     -7.66111168	     -0.07789146	      0.00000000	      1.15041021	    -17.50334085	      0.00000000	      4.88649917	     -0.01646598	     -5.21651048	      0.00000000	      2.68975018	     -5.49175550	      0.00000000	     -9.68017538	     -0.16563072	     -0.93591003	     11.65406867	     -9.19631005	     39.62466155	     97.51346735	     86.85048305	      8.84478553	     -4.53543435	     28.98084712	     89.37334712	     77.77694160
      2.25000000	     -7.32795161	      2.23236653	     -2.54228233	      1.80743388	      0.87892809	     -0.19913001	      5.47886724	     -7.73524188	     -0.09143751	      0.00000000	      1.23495852	    -17.55365471	      0.00000000	      4.89281055	      0.05995026	     -5.26968859	      0.00000000	      2.74823816	     -5.57123114	      0.00000000	     -9.86106205	     -0.04611911	     -0.78281896	     11.70873288	     -9.32290102	     39.56728776	     97.27906943	     86.84808106	      8.75400174	     -4.85098886	     28.89172578	     89.18664986	     77.79757415
      2.26666670	     -7.09351852	      2.26181676	     -2.81417411	      1.80841632	      0.87906377	     -0.19779721	      5.19953826	     -7.74682389	      0.42470340	      0.00000000	      1.54576128	    -17.58201804	      0.00000000	      4.52549327	      0.08616122	     -5.56633442	      0.00000000	      2.78739067	     -5.96397297	      0.00000000	     -9.86844892	     -0.12074367	     -0.67253153	     12.09778610	     -9.06923672	     39.32875894	     95.50947416	     86.86174974	      8.89723257	     -5.16295260	     28.50183021	     88.05984701	     78.05601451
